<svg xmlns="http://www.w3.org/2000/svg" height="512" preserveAspectRatio="none" style="display: block;" version="1.1" viewBox="0 0 2048 2048" width="512">
<path d="M 1226.39 319.001 C 1375.16 313.019 1525.06 401.273 1606.05 525.584 C 1617.57 543.251 1600.1 560.056 1584.51 567.206 C 1562.03 557.489 1532.74 505.047 1508.08 482.488 C 1330.57 320.122 1095.75 327.867 963.213 534.78 C 946.4 561.028 935.764 589.434 920.357 615.409 C 942.092 646.41 943.826 703.227 947.38 739.803 C 1065.42 585.881 1263.98 504.321 1446.64 598.27 C 1519.32 635.649 1589.64 717.023 1615.85 794.627 C 1637.17 857.723 1634.1 951.402 1713.69 985.784 C 1762.78 1006.99 1798.66 1035.22 1772.43 1094.55 C 1765.23 1110.82 1738.47 1130.12 1719.85 1133.16 C 1657.25 1143.37 1580.77 1077.19 1527.51 1045.83 C 1485.36 1073.62 1456.78 1063 1412.77 1050.42 C 1286.51 1014.33 1156.56 1025.42 1039.93 1085.37 C 1120.38 1251.15 1281.7 1347.99 1458.1 1386.37 C 1491.22 1393.57 1519.76 1395.75 1552.99 1399.85 C 1626.53 1404.71 1671.45 1471.01 1642.46 1539.92 C 1618.58 1596.68 1488.15 1653.17 1434.12 1675.62 C 1105.29 1803.2 721.382 1680.42 555.336 1363.09 C 537.586 1329.17 522.766 1286.44 508.576 1250.46 C 319.588 1321.73 422.346 1462.9 402.517 1488.35 C 377.591 1518.64 358.294 1491.69 342.528 1472.34 C 257.855 1368.4 242.934 1219.02 320.389 1106.18 C 380.435 1018.69 469.596 980.491 569.27 961.3 C 550.39 831.078 573.885 689.589 653.797 582.532 C 670.807 559.744 696.687 542.229 716.131 523.169 C 731.874 462.877 727.741 389.867 777.169 337.582 C 808.821 304.1 877.041 333.961 897.667 368.547 C 924.658 413.805 892.602 413.54 881.418 446.897 C 872.158 474.514 869.683 514.32 869.995 541.703 C 878.41 549.672 884.471 558.045 891.416 567.206 C 958.15 428.194 1068.08 336.809 1226.39 319.001 z M 1374.22 1480.47 C 1388.8 1487.79 1391.69 1496.7 1390.93 1511.98 C 1386.24 1520.51 1379.74 1528.21 1369.39 1529.95 C 1174.83 1562.58 990.667 1518.09 832.958 1402.37 C 783.115 1363.28 719.605 1304.1 684.493 1250.46 C 645.821 1241.12 597.548 1239.11 557.744 1240.05 C 571.31 1279.65 587.039 1321.04 607.885 1357.49 C 792.957 1676.51 1198.24 1763.1 1514.17 1583.33 C 1539.44 1568.95 1565.93 1552.6 1587.61 1533.35 C 1617.68 1507.94 1599.47 1454.55 1563.95 1449.41 C 1527.66 1444.17 1486.96 1444.8 1450.5 1435.02 C 1216.8 1388.64 1040.48 1246.22 959.521 1023.03 C 925.312 929.377 907.899 827.586 898.325 728.697 C 896.814 686.684 889.086 644.711 863.077 610.209 C 833.827 571.408 814.435 556.535 822.939 504.893 C 830.155 461.067 826.79 433.721 855.759 395.944 C 847.146 383.594 833.213 373.561 818.275 370.969 L 815.164 370.441 C 814.793 370.384 814.423 370.328 814.052 370.271 C 775.072 412.597 773.614 491.413 761.303 543.275 C 757.821 557.943 710.672 589.773 700.656 604.366 C 640.559 670.428 607.826 794.538 611.174 885.119 C 619.554 1255.32 955.384 1525.96 1317.76 1487.16 C 1334.68 1485.35 1354.86 1480.6 1371.48 1480.48 L 1373.19 1480.46 C 1373.53 1480.46 1373.87 1480.47 1374.22 1480.47 z M 957.193 802.581 L 957.193 818.187 C 972.802 812.641 988.041 804.813 1003.27 798.148 C 1194.69 714.354 1402.17 779.757 1545.94 920.337 C 1576.42 949.801 1575.14 974.098 1561.17 1011.83 C 1601.02 1033.4 1666.64 1085.56 1713.95 1085.37 C 1722.33 1079.41 1724.6 1077.69 1730.77 1069.01 C 1734.07 1041.46 1720.04 1044.82 1698.54 1032.37 C 1660.9 1010.57 1640.86 992.187 1617.48 957.303 C 1578.48 899.116 1583.9 831.334 1547.69 764.218 C 1492.59 662.081 1378.84 600.277 1263.15 607.996 C 1144.32 622.117 1066.45 672.073 988.756 765.203 C 978.668 777.294 966.179 789.723 957.193 802.581 z M 575.728 1011.83 C 386.067 1035.23 262.785 1200 344.579 1386.83 C 345.42 1371.59 346.919 1356.6 350.752 1341.76 C 390.104 1207.49 523.677 1180.17 645.963 1195.09 C 626.18 1151.83 601.628 1114.17 590.485 1066.39 C 588.764 1059 577.567 1013.64 575.728 1011.83 z M 1299.24 979.069 C 1356.48 988.008 1389.21 992.561 1447.61 1010.56 C 1494.11 1024.89 1552.06 984.932 1506.2 949.21 C 1412.29 864.502 1297.52 805.187 1168.19 809.991 C 1113.17 814.658 1012.34 834.876 967.498 871.205 C 982.728 936.8 999.805 980.776 1019.14 1041.53 C 1099.9 993.617 1207.37 978.476 1299.24 979.069 z" fill="rgb(1,1,1)" transform="translate(0,0)"></path>
<path d="M 752.94 703.028 C 791.658 701.957 779.947 741.61 778.582 768.991 C 768.802 965.164 840.062 1162.84 983.359 1299.05 C 999.732 1314.62 1039.77 1347.5 994.077 1363.22 C 983.26 1362.47 977.385 1359 969.194 1351.9 C 797.596 1203.04 714.898 970.934 731.409 746.736 C 732.867 726.945 731.052 710.236 752.94 703.028 z" fill="rgb(1,1,1)" transform="translate(0,0)"></path>
</svg>