<svg xmlns="http://www.w3.org/2000/svg" height="512" preserveAspectRatio="none" style="display: block;" version="1.1" viewBox="0 0 2048 2048" width="512">
<path d="M 1417.01 264.448 C 1448.76 263.491 1474.48 279.67 1489.51 307.437 C 1509.09 343.606 1489.65 380.994 1478.91 416.697 C 1448.13 519.09 1422.41 622.941 1390.54 725.005 C 1415.95 728.662 1454.96 717.731 1479.66 737.217 C 1512.38 763.032 1495.69 817.674 1491.59 855.285 L 1404.31 1599.28 C 1399.43 1639.85 1398.18 1679.11 1371.74 1712.18 C 1321.67 1774.81 1262.28 1764.3 1192.07 1764.13 L 851.399 1764.17 C 719.326 1764.24 664.823 1754.39 647.052 1610.31 L 636.62 1519.69 C 624.513 1434.35 615.042 1345.15 605.128 1259.43 L 554.965 841.633 C 551.319 810.514 536.311 759.772 565.556 736.958 C 584.846 721.91 636.184 722.441 661.896 725.005 C 671.674 697.101 681.278 682.146 702.188 661.27 C 684 644.427 621.686 577.414 612.175 561.949 C 586.373 519.996 660.174 453.975 698.151 455.467 C 740.179 457.118 804.509 538.626 833.782 569.759 C 936.385 472.916 1084.81 493.507 1152.81 620.125 C 1200.47 617.635 1218.17 624.551 1258.83 646.891 C 1268.93 618.163 1279.04 577.959 1287.34 548.036 L 1330.97 392.39 C 1345.86 339.38 1349.66 269.299 1417.01 264.448 z M 628.605 1062.99 C 639.284 1131.36 646.32 1200.67 654.081 1269.31 L 677.377 1459.99 C 689.205 1563.63 712.022 1571.21 815.016 1571.14 L 1287.37 1571.03 C 1371.2 1564.85 1367.84 1488.5 1375.77 1426.98 L 1410.67 1139.13 C 1413.56 1116.24 1419.2 1085.32 1417.01 1062.99 C 1308.86 1065.1 1287.77 990.297 1201.94 1000.14 C 1163.07 1000.79 1141.43 1020.41 1111.38 1040.46 C 1077.72 1062.9 1004.28 1067.98 966.592 1053.01 C 908.317 1029.88 896.638 994.083 824.088 1000.02 C 733.762 1011.88 739.538 1063.57 628.605 1062.99 z M 593.594 772.304 C 600.594 844.108 623.151 947.233 622.091 1016.38 C 677.148 1014.36 682.737 1015.78 728.805 983.78 C 781.086 947.464 855.241 943.308 912.763 969.22 C 933.942 978.76 948.024 991.557 966.687 1002.17 C 1017.73 1031.21 1070.41 1012.34 1113.32 980.944 C 1132.71 967.691 1148.64 962.091 1171.42 956.827 C 1185.88 895.656 1209.11 832.727 1221.92 772.304 C 1158.04 773.772 1087.89 772.293 1023.29 772.29 L 608.496 772.304 C 603.697 772.352 598.339 772.53 593.594 772.304 z M 1424.36 1016.38 C 1427.74 994.952 1429.9 972.23 1432.48 950.604 L 1447.5 819.584 C 1449.15 804.585 1450.21 786.832 1452.2 772.304 C 1426.23 773.165 1402.74 772.492 1376.86 772.304 L 1340.35 905.945 C 1334.75 926.62 1321.95 966.186 1321.75 984.766 C 1338.86 1004.54 1368.83 1013.99 1394.25 1016.38 C 1404.55 1016.92 1414.05 1017.11 1424.36 1016.38 z M 1270.5 772.304 C 1253.62 819.541 1230.56 906.278 1221.92 953.001 C 1228.37 953.204 1276.24 962.337 1277.2 961.823 L 1312.84 830.843 C 1317.78 812.49 1324.42 790.543 1328.46 772.304 L 1270.5 772.304 z M 652.833 538.878 C 679.811 569.415 715.107 602.01 739.569 633.468 C 745.907 630.285 751.204 627.63 757.768 624.972 C 774.565 619.883 780.472 620.099 798.31 620.125 C 800.075 614.465 800.933 612.348 803.431 607.047 C 789.925 589.617 712.056 500.857 693.964 503.072 C 684.018 508.936 659.544 529.56 652.833 538.878 z M 1000.5 725.005 L 1237.43 725.005 C 1239.42 716.575 1242.13 706.313 1243.5 697.913 C 1186.7 644.715 1138.64 677.764 1124.51 663.326 C 1115.78 654.404 1110.13 637.193 1103.15 626.206 C 1074.92 581.737 1014.14 549.034 960.67 556.016 C 852.961 569.385 841.241 667.388 818.159 665.346 C 774.523 661.486 729.222 682.574 713.534 725.005 L 1000.5 725.005 z M 1287.37 725.005 C 1298.78 725.07 1310.36 725.255 1321.75 725.005 C 1328.74 725.028 1336.61 725.231 1343.53 725.005 L 1437.34 395.099 C 1445.41 367.79 1470.07 308.643 1417.01 311.065 C 1392.85 317.332 1391.21 346.834 1385.63 367.487 L 1287.37 725.005 z M 1356.78 1593.81 C 1308.27 1626.05 1266.59 1618.99 1212 1618.97 L 845.322 1618.98 C 797.062 1618.98 735.164 1625.93 693.964 1598.22 C 697.749 1625.54 697.017 1657.65 713.534 1679.35 C 745.318 1725.35 794.215 1716.69 843.219 1716.64 L 1169.4 1716.63 C 1270.26 1716.63 1355.98 1734.03 1356.78 1593.81 z" fill="rgb(1,1,1)" transform="translate(0,0)"></path>
<path d="M 706.062 1120.11 C 725.771 1118.73 733.977 1128.02 736.166 1146.02 L 764.735 1398.94 C 767.935 1428.08 784.173 1473.23 757.768 1489.55 C 733.105 1494.97 727.077 1477.46 724.6 1457.74 L 699.695 1248.3 C 696.006 1216.45 674.762 1134.6 706.062 1120.11 z" fill="rgb(1,1,1)" transform="translate(0,0)"></path>
<path d="M 1312.91 1255.22 C 1332.36 1252.17 1346.23 1262.47 1344.55 1282.24 C 1340.13 1334.27 1328.12 1408.59 1318.78 1460.32 C 1316.2 1474.57 1314.89 1478.15 1302.63 1486.43 C 1252.89 1495.81 1278.78 1413.57 1282.54 1385.87 L 1292.5 1312.54 C 1295.3 1292.42 1293.59 1266.66 1312.91 1255.22 z" fill="rgb(1,1,1)" transform="translate(0,0)"></path>
<path d="M 1337.6 1131.03 C 1373.44 1128.2 1367.05 1200.27 1337.6 1209.02 C 1299.14 1210.54 1303.09 1141.42 1337.6 1131.03 z" fill="rgb(1,1,1)" transform="translate(0,0)"></path>
<path d="M 902.801 640.323 C 910.564 638.357 918.783 640.755 924.271 646.587 C 929.759 652.419 931.653 660.768 929.219 668.398 C 926.786 676.027 920.406 681.737 912.555 683.313 C 900.826 685.668 889.359 678.241 886.713 666.575 C 884.066 654.909 891.205 643.26 902.801 640.323 z" fill="rgb(1,1,1)" transform="translate(0,0)"></path>
<path d="M 987.563 602.495 C 999.605 601.747 1009.99 610.868 1010.8 622.906 C 1011.61 634.944 1002.55 645.377 990.513 646.252 C 978.389 647.133 967.862 637.985 967.044 625.856 C 966.226 613.728 975.43 603.249 987.563 602.495 z" fill="rgb(1,1,1)" transform="translate(0,0)"></path>
</svg>