<svg xmlns="http://www.w3.org/2000/svg" height="512" preserveAspectRatio="none" style="display: block;" version="1.1" viewBox="0 0 2048 2048" width="512">
<path d="M 501.782 272.14 C 516.711 271.505 533.068 273.507 548.064 275.033 L 1126.16 332.525 C 1177.72 337.702 1264.43 330.609 1289.58 385.771 C 1308.01 426.213 1288.72 452.874 1275.81 489.989 C 1365.25 492.93 1439.68 474.155 1515.26 538.213 C 1580.12 593.194 1592.22 646.106 1610.48 724.404 C 1636.11 834.331 1640.93 945.513 1619.16 1056.44 C 1609.07 1136.03 1540.98 1219.06 1457.41 1227.29 C 1457.37 1245.12 1463.59 1276.41 1464.86 1297.06 C 1476.68 1459.01 1430.26 1579.7 1325.83 1701.43 C 1234.57 1783.97 1241.9 1779.67 1109.77 1779.61 L 765.043 1779.69 C 708.464 1779.68 649.791 1786.97 602.912 1748.69 C 461.565 1633.28 381.324 1401.09 427.875 1224.38 C 447.692 1148.39 506.975 1024.77 541.828 947.669 C 612.398 791.919 703.393 573.664 555.423 435.835 C 533.351 415.275 512.359 390.396 490.781 369.222 C 454.985 334.094 444.014 278.819 501.782 272.14 z M 605.971 926.843 C 592.15 960.162 578.413 994.576 563.698 1027.36 C 487.395 1197.34 418.275 1318.76 499.813 1510.82 C 525.999 1572.49 555.915 1626.03 600.735 1676.06 C 646.998 1727.7 660.673 1730.38 726.5 1730 L 1112.34 1729.53 C 1242.39 1729.11 1241.48 1727.96 1329.89 1617.41 C 1333.22 1613.24 1335.3 1606.14 1338.47 1601.63 C 1387.4 1533.3 1419 1444.19 1418 1360.1 C 1417.51 1318.9 1411.71 1236.98 1398.84 1198.11 C 1382.83 1149.76 1348.65 1099.29 1326.08 1051.32 C 1310.13 1017.43 1292.01 985.135 1276.59 949.434 C 1269.05 932.791 1263.77 915.212 1255 899.117 C 1221.34 871.469 1141.74 856.147 1102 859.036 C 1024.1 871.175 995.222 899.107 933.508 938.895 C 827.713 1007.1 708.167 985.428 605.971 926.843 z M 1264.71 539.021 C 1248.84 541.769 1244.99 590.163 1244.78 603.985 C 1373.12 610.267 1430.72 565.91 1484.49 707.666 C 1512.28 780.921 1524.88 829.988 1520.74 911.891 C 1519.04 945.481 1512.36 1057.82 1487.94 1079.95 C 1472.46 1093.98 1443.55 1080.8 1446.16 1059 C 1447.71 1046.03 1456.67 1033.36 1458.92 1018.62 C 1474.92 913.847 1479.78 822.563 1436.79 721.64 C 1408.54 655.338 1407.31 652.295 1339.31 653.385 C 1308.2 653.883 1275.84 655.518 1244.78 653.639 C 1248.75 686.44 1253.62 715.148 1261.2 747.247 C 1277.57 813.663 1299.22 878.956 1328.3 940.649 C 1355.53 1013.02 1427.89 1115.52 1442.49 1179.54 C 1465.27 1179.72 1467.37 1177.68 1486.28 1167.19 C 1572.97 1119.09 1580.7 1019.01 1584.74 928.997 C 1588.69 840.921 1567.25 751.983 1545.18 667.599 C 1529.16 606.359 1474.21 554.386 1412.95 541.843 C 1387.32 536.502 1295.97 537.51 1264.71 539.021 z M 683.245 593.991 L 1193.7 593.991 L 1203.18 549.76 C 1215.75 501.452 1232.86 468.158 1247 424.277 C 1259.04 386.897 1191.87 388.641 1171.48 386.654 L 642.724 334.691 C 603.049 330.433 552.622 327.892 514.321 322.248 C 520.81 332.939 545.869 354.342 555.533 364.179 C 623.888 433.759 680.685 490.336 683.245 593.991 z M 832.484 642.772 L 683.245 642.772 C 679.726 740.127 653.573 792.354 626.709 877.227 C 697.01 949.161 840.299 939.807 921.048 888.243 C 939.079 876.729 956.589 861.472 975.543 851.257 C 1062.32 797.199 1143.39 802.048 1235.98 832.861 C 1214.91 782.513 1197.32 697.444 1193.7 642.772 C 1157.99 641.313 1111.64 642.782 1074.94 642.782 L 832.484 642.772 z" fill="rgb(1,1,1)" transform="translate(0,0)"></path>
<path d="M 1040.03 1177.37 C 1165.77 1168.43 1275.08 1262.83 1284.55 1388.53 C 1294.02 1514.24 1200.09 1623.95 1074.43 1633.95 C 948.01 1644.01 837.498 1549.39 827.971 1422.93 C 818.444 1296.47 913.532 1186.36 1040.03 1177.37 z M 1069.07 1585.39 C 1099.98 1583.75 1128.86 1573.64 1154.69 1556.58 C 1148.69 1547.61 1063.77 1447.7 1059.18 1445.67 C 1033.63 1482.8 999.74 1530.1 971.127 1565.09 C 997.97 1579.05 1038.81 1588.01 1069.07 1585.39 z M 1029.02 1377.31 C 1030.01 1363.06 1029.67 1231.35 1027.32 1227.45 C 1024.79 1226.72 1024.88 1226.87 1022.24 1227.29 C 962.691 1238.44 915.126 1277.13 892.577 1333.66 L 892.901 1335.19 C 906.651 1337.5 919.726 1342.06 933.09 1346.06 C 959.781 1356.5 1001.41 1370.17 1029.02 1377.31 z M 879.001 1382.97 C 876.996 1451.6 890.063 1484.1 933.09 1536.8 C 943.348 1520.45 955.469 1505.51 966.212 1489.41 C 982.266 1467.12 997.785 1444.43 1014.03 1422.35 C 971.651 1417.06 922.879 1391.16 879.001 1382.97 z M 1154.69 1477.08 C 1159.78 1485.1 1186.49 1516.78 1193.7 1523.42 C 1228.82 1472.02 1243.16 1432.65 1233.24 1368.32 C 1232.75 1365.18 1232.17 1362.46 1229.94 1360.24 L 1229.15 1359.93 C 1196.59 1374.16 1127.32 1395.52 1102 1414.16 C 1108.35 1426.54 1144.87 1470.17 1154.69 1477.08 z M 1077.6 1368.44 C 1108.24 1356.76 1143.5 1338.43 1174.73 1331.2 C 1183.6 1329.25 1198.54 1319.56 1210.3 1316.04 C 1193.16 1272.41 1123.91 1228.92 1077.6 1227.29 C 1076.67 1239.41 1077.48 1254.56 1077.41 1267.07 L 1077.6 1368.44 z" fill="rgb(1,1,1)" transform="translate(0,0)"></path>
<path d="M 719.209 1090.34 C 755.188 1087.25 784.307 1132.77 809.823 1157.21 C 852.436 1197.66 825.387 1225.82 790.876 1255.44 C 768.658 1274.51 757.784 1299.15 726.5 1304.95 C 683.794 1306.91 645.795 1257.85 621.812 1226.07 C 593.035 1182.54 687.369 1095.43 719.209 1090.34 z M 662.862 1202.25 C 681.044 1219.16 701.153 1240.47 719.209 1256.3 C 731.514 1249.48 771.018 1209.49 779.968 1197.57 C 776.877 1193.76 726.371 1142.18 726.5 1142.23 C 712.865 1149.31 674.815 1187.24 663.578 1201.33 L 662.862 1202.25 z" fill="rgb(1,1,1)" transform="translate(0,0)"></path>
<path d="M 1134.69 909.209 C 1162.93 906.969 1235.8 981.418 1242.03 1004.74 C 1251.51 1040.26 1216.67 1059 1196.63 1081.47 C 1179.98 1099.65 1169.04 1116.76 1143.28 1121.99 C 1103.98 1122.98 1056.29 1070.34 1035.51 1040.66 C 1012.51 1007.81 1049.84 975.981 1070.66 956.097 C 1091.5 936.19 1104.3 913.793 1134.69 909.209 z M 1077.6 1017.82 C 1079.5 1020.74 1084.46 1026.43 1087.18 1027.96 C 1095.14 1032.44 1130.97 1071.62 1134.69 1072.71 C 1154.39 1054.86 1175.04 1036.69 1193.7 1017.82 C 1188.02 1010.07 1146.49 965.373 1137.69 958.258 C 1124.05 967.873 1089.48 1003.99 1077.6 1017.82 z" fill="rgb(1,1,1)" transform="translate(0,0)"></path>
<path d="M 899.655 1063.01 C 907.822 1060.3 916.817 1062.21 923.174 1068.01 C 929.532 1073.81 932.261 1082.59 930.31 1090.97 C 928.359 1099.35 922.032 1106.02 913.767 1108.42 C 901.323 1112.02 888.282 1105.01 884.437 1092.63 C 880.593 1080.26 887.359 1067.09 899.655 1063.01 z" fill="rgb(1,1,1)" transform="translate(0,0)"></path>
</svg>